<?xml version="1.0" encoding="utf-8"?>
<!-- Generator: Adobe Illustrator 17.1.0, SVG Export Plug-In . SVG Version: 6.00 Build 0)  -->
<!DOCTYPE svg PUBLIC "-//W3C//DTD SVG 1.1//EN" "http://www.w3.org/Graphics/SVG/1.1/DTD/svg11.dtd">
<svg version="1.1" id="Calque_1" xmlns="http://www.w3.org/2000/svg" xmlns:xlink="http://www.w3.org/1999/xlink" x="0px" y="0px"
	 viewBox="0 0 96.7 51.2" enable-background="new 0 0 96.7 51.2" xml:space="preserve">
<g>
	<path fill="#2B2D3A" d="M29.5,0c0.7,0,1.4,0.2,2,0.5c0.6,0.4,1.1,0.9,1.5,1.7c0.4,0.8,0.8,1.9,1,3.1c0.2,1.3,0.3,2.9,0.3,4.8
		c0,0.8,0,1.7-0.1,2.8c-0.1,1-0.2,2.1-0.3,3.2c-0.1,1.1-0.3,2.2-0.4,3.4c-0.2,1.1-0.3,2.3-0.5,3.3s-0.4,2.1-0.6,3.1
		c-0.2,1-0.4,1.9-0.6,2.7c0.4-0.1,0.8-0.2,1.3-0.3c0.5-0.1,0.9-0.2,1.4-0.3s0.9-0.2,1.4-0.4c0.4-0.1,0.9-0.3,1.3-0.4
		c0.6-3.1,1.1-5.9,1.7-8.3c0.6-2.4,1.1-4.5,1.8-6.3s1.3-3.3,1.9-4.5c0.7-1.2,1.4-2.2,2.2-2.9c0.8-0.7,1.6-1.3,2.5-1.6
		C48,3.3,49,3.1,50,3.1c0.8,0,1.6,0.1,2.3,0.3c0.7,0.2,1.3,0.6,1.8,1c0.5,0.4,0.9,1,1.2,1.6s0.4,1.3,0.4,2.1c0,0.3,0,0.5-0.1,0.8
		s-0.1,0.5-0.3,0.8c-0.1,0.3-0.2,0.5-0.4,0.7c-0.1,0.2-0.3,0.4-0.5,0.6c-0.8,0.1-1.5,0.2-2.2,0.3s-1.2,0.3-1.6,0.6
		c-0.5,0.3-0.9,0.7-1.2,1.1c-0.4,0.5-0.7,1.1-1,1.9c-0.3,0.8-0.7,1.8-1,2.9c-0.3,1.1-0.7,2.5-1.1,4.1c0.4,0.2,0.7,0.4,0.9,0.6
		c0.3,0.2,0.5,0.5,0.6,0.8c0.2,0.3,0.3,0.6,0.4,0.9c0.1,0.3,0.1,0.6,0.1,0.9c0,0.7-0.1,1.3-0.3,1.9c-0.2,0.6-0.5,1.2-0.9,1.7
		c-0.3,0.5-0.7,1-1.2,1.4c-0.4,0.4-0.9,0.8-1.3,1.1c-0.2,0.9-0.3,1.8-0.5,2.6c-0.1,0.8-0.3,1.6-0.4,2.3c-0.1,0.7-0.2,1.3-0.3,1.8
		c-0.1,0.5-0.1,0.9-0.1,1.2c0,0.3,0,0.6,0,0.8c0,0.2,0.1,0.4,0.1,0.5c0.1,0.1,0.2,0.2,0.3,0.2c0.1,0,0.2,0.1,0.4,0.1
		c0.2,0,0.7-0.2,1.3-0.5c0.6-0.3,1.3-0.9,2.2-1.6c0.9-0.7,1.8-1.7,2.9-2.9c1.1-1.2,2.2-2.6,3.4-4.3c0.3,0,0.6,0,0.9,0.1
		s0.5,0.2,0.7,0.4c0.2,0.2,0.4,0.4,0.5,0.6c0.1,0.2,0.2,0.5,0.2,0.8c0,0.5-0.2,1.1-0.5,1.8c-0.3,0.7-0.7,1.5-1.3,2.3s-1.2,1.7-2,2.6
		c-0.8,0.9-1.6,1.7-2.5,2.6s-1.8,1.6-2.8,2.4c-1,0.8-2,1.4-3,2c-1,0.6-2,1-3,1.4c-1,0.3-2,0.5-2.9,0.5c-0.7,0-1.3-0.1-1.8-0.3
		c-0.5-0.2-1-0.4-1.3-0.8c-0.4-0.4-0.6-0.8-0.8-1.4c-0.2-0.6-0.3-1.3-0.3-2.1c0-0.4,0-1,0.1-1.7c0.1-0.7,0.2-1.6,0.3-2.5
		c0.1-0.9,0.3-2,0.5-3.1c0.2-1.1,0.4-2.3,0.6-3.4c-0.3,0.1-0.7,0.2-1.2,0.3c-0.5,0.1-1,0.2-1.5,0.3c-0.5,0.1-1.1,0.2-1.7,0.3
		c-0.6,0.1-1.2,0.2-1.8,0.2c-0.6,1.5-1.3,3-2.1,4.4s-1.6,2.7-2.5,4c-0.9,1.2-1.9,2.4-3,3.4c-1.1,1-2.2,1.9-3.3,2.6
		c-1.2,0.7-2.4,1.3-3.7,1.7c-1.3,0.4-2.6,0.6-4.1,0.6c-1,0-2-0.1-3-0.4c-1-0.3-1.8-0.6-2.7-1.1c-0.8-0.5-1.6-1.1-2.2-1.7
		c-0.7-0.7-1.2-1.4-1.7-2.3S0.6,43.9,0.4,43S0,41,0,39.9c0-1.4,0.2-2.6,0.6-3.7c0.4-1.1,1.1-2,2.1-2.8s2.3-1.4,3.8-1.9
		s3.5-0.8,5.9-1c0.9-0.1,1.8-0.1,2.7-0.2s1.7-0.1,2.5-0.2s1.7-0.1,2.5-0.2s1.7-0.1,2.6-0.2c0.1-0.7,0.3-1.5,0.4-2.4s0.3-1.9,0.4-2.9
		s0.3-2,0.4-3.1c0.1-1.1,0.2-2.1,0.3-3c0.1-1,0.2-1.9,0.2-2.7c0.1-0.8,0.1-1.5,0.1-2.1c0-0.6-0.1-1.3-0.3-1.9
		c-0.2-0.6-0.5-1.2-0.7-1.8c-0.3-0.6-0.5-1.2-0.7-1.9c-0.2-0.6-0.3-1.3-0.3-2c0-0.7,0.1-1.4,0.3-1.9C23,3.6,23.3,3,23.6,2.6
		c0.3-0.5,0.7-0.8,1.2-1.2c0.5-0.3,0.9-0.6,1.4-0.8c0.5-0.2,1-0.4,1.6-0.5C28.4,0.1,28.9,0,29.5,0z M13.4,36.5c-0.8,0-1.5,0.1-2,0.2
		c-0.5,0.1-1,0.3-1.3,0.5c-0.3,0.2-0.6,0.4-0.7,0.7s-0.2,0.5-0.2,0.8c0,0.4,0.1,0.8,0.2,1.2s0.3,0.8,0.6,1.1c0.2,0.4,0.5,0.7,0.9,1
		s0.7,0.6,1.1,0.8c0.4,0.2,0.8,0.4,1.2,0.5c0.4,0.1,0.8,0.2,1.2,0.2c0.7,0,1.4-0.2,2-0.6s1.3-0.9,1.8-1.6s1.1-1.5,1.6-2.4
		s0.9-1.9,1.4-3c-0.8,0.1-1.4,0.1-2.1,0.2c-0.6,0.1-1.2,0.1-1.8,0.1c-0.6,0-1.2,0.1-1.8,0.1C14.8,36.4,14.1,36.5,13.4,36.5z"/>
	<path fill="#2B2D3A" d="M74.2,27.9c0.7-0.8,1.4-1.9,2.1-3c0.7-1.2,1.5-2.4,2.2-3.8c0.7-1.4,1.5-2.8,2.2-4.2c0.7-1.5,1.4-2.9,2-4.4
		c0.6-1.3,1.1-2.5,1.6-3.4c0.5-1,0.9-1.8,1.4-2.4C86,6,86.5,5.5,86.9,5.1c0.4-0.4,0.8-0.7,1.2-0.9c0.4-0.2,0.9-0.4,1.3-0.4
		c0.5-0.1,0.9-0.1,1.5-0.1c0.9,0,1.8,0.2,2.5,0.5s1.3,0.8,1.8,1.4c0.5,0.6,0.9,1.2,1.1,2c0.3,0.7,0.4,1.5,0.4,2.2
		c0,0.5-0.1,1-0.2,1.5c-0.2,0.5-0.4,1-0.8,1.4c-0.4,0-0.7,0.1-1.1,0.1s-0.6,0.2-0.9,0.3c-0.3,0.2-0.6,0.4-0.9,0.6
		c-0.3,0.3-0.7,0.6-1,1.1c-0.4,0.4-0.8,1-1.3,1.6c-0.5,0.6-1,1.4-1.6,2.3c-0.9,1.3-1.8,2.5-2.6,3.6s-1.6,2.1-2.4,3
		c-0.8,0.9-1.5,1.8-2.3,2.5c-0.7,0.8-1.4,1.4-2.1,2c0.5,0.4,1.1,0.9,1.6,1.5c0.5,0.7,1.1,1.5,1.6,2.3c0.5,0.9,1.1,1.8,1.6,2.9
		s1,2.1,1.6,3.1c0.2,0.4,0.3,0.7,0.5,0.9c0.2,0.2,0.3,0.4,0.5,0.5c0.2,0.1,0.4,0.2,0.6,0.3c0.2,0.1,0.4,0.1,0.6,0.1
		c0.1,0,0.3,0,0.5,0c0.2,0,0.4,0,0.6-0.1c0.2,0,0.4-0.1,0.7-0.1c0.2,0,0.4-0.1,0.6-0.1c0.2,0.3,0.4,0.6,0.5,1s0.2,0.8,0.2,1.1
		c0,0.5-0.1,1.1-0.4,1.6c-0.2,0.5-0.6,1-1,1.5c-0.4,0.5-0.9,0.9-1.5,1.3s-1.2,0.7-1.8,1c-0.6,0.3-1.3,0.5-2,0.7
		c-0.7,0.2-1.4,0.2-2.1,0.2c-0.6,0-1.1-0.1-1.5-0.2c-0.4-0.1-0.8-0.3-1.2-0.7c-0.4-0.3-0.7-0.7-1.1-1.3c-0.3-0.5-0.7-1.2-1.1-2
		c-0.6-1.4-1.2-2.6-1.7-3.7c-0.5-1.1-1-2-1.4-2.9c-0.4-0.8-0.8-1.5-1.2-2.1s-0.7-1.1-1.1-1.5c-0.4-0.4-0.7-0.8-1.1-1
		c-0.4-0.3-0.8-0.5-1.3-0.6L67,46.4c-0.3,0.3-0.6,0.5-1,0.6s-0.9,0.2-1.5,0.2c-0.5,0-1.1-0.1-1.6-0.2c-0.5-0.2-1.1-0.4-1.5-0.7
		c-0.5-0.3-1-0.6-1.4-1c-0.4-0.4-0.8-0.8-1.1-1.3c-0.3-0.5-0.6-1-0.7-1.5c-0.2-0.5-0.3-1.1-0.3-1.6c0-0.6,0.1-1.2,0.3-1.9
		c0.2-0.7,0.4-1.5,0.8-2.3s0.7-1.7,1.2-2.6s1-1.8,1.7-2.7l0.8-3.6c-0.3,0-0.6,0.1-0.9,0.1c-0.3,0-0.7,0-0.9,0
		c-1.3,0-2.5-0.2-3.7-0.6c-1.2-0.4-2.2-0.9-3-1.6c-0.9-0.7-1.6-1.6-2.1-2.6s-0.8-2.2-0.8-3.5c0-1.1,0.2-2.2,0.5-3.3
		c0.3-1.1,0.8-2.2,1.4-3.3c0.6-1.1,1.3-2.1,2.1-3.2c0.8-1,1.7-2,2.6-2.9c0.9-0.9,1.9-1.8,3-2.5c1-0.8,2.1-1.4,3.1-2s2.1-1,3.1-1.3
		c1-0.3,2-0.5,2.9-0.5c1,0,2,0.1,2.7,0.4c0.8,0.3,1.4,0.6,1.9,1.1c0.5,0.5,0.9,1.1,1.1,1.7s0.4,1.4,0.4,2.2c0,0.5-0.1,1.3-0.3,2.6
		c-0.2,1.2-0.5,2.8-0.9,4.7c-0.4,1.9-0.9,4.1-1.5,6.6s-1.2,5.2-1.9,8.2c0.4-0.1,0.9-0.1,1.4-0.1C73.1,27.9,73.6,27.9,74.2,27.9z
		 M63.9,22.3c0.4-1.5,0.8-3,1.2-4.3s0.6-2.5,0.9-3.6s0.4-2,0.5-2.7s0.2-1.3,0.2-1.7c0-0.5-0.1-0.9-0.3-1.2c-0.2-0.2-0.4-0.4-0.8-0.4
		c-0.3,0-0.6,0.1-1.1,0.4c-0.4,0.3-0.9,0.6-1.4,1.1c-0.5,0.4-1,1-1.5,1.6c-0.5,0.6-1,1.2-1.4,1.9s-0.8,1.4-1,2.1s-0.4,1.4-0.4,2.1
		c0,0.6,0.1,1.2,0.3,1.7c0.2,0.5,0.5,0.9,0.9,1.3c0.4,0.4,1,0.7,1.6,1C62.3,21.8,63,22.1,63.9,22.3z"/>
</g>
</svg>
