<?xml version="1.0" encoding="utf-8"?>
<!-- Generator: Adobe Illustrator 17.1.0, SVG Export Plug-In . SVG Version: 6.00 Build 0)  -->
<!DOCTYPE svg PUBLIC "-//W3C//DTD SVG 1.1//EN" "http://www.w3.org/Graphics/SVG/1.1/DTD/svg11.dtd">
<svg version="1.1" id="Calque_1" xmlns="http://www.w3.org/2000/svg" xmlns:xlink="http://www.w3.org/1999/xlink" x="0px" y="0px"
	 viewBox="0 0 133 27" enable-background="new 0 0 133 27" xml:space="preserve">
<path fill-rule="evenodd" clip-rule="evenodd" fill="#2B2D3A" d="M129.6,27l-3.1-6.9h0l-1.2-2.7h0l-6.2-14.2l-6.2,14.2h0l-1.1,2.5h0
	l-3.1,7.1h-3.4l12.4-27h2.8L133,27H129.6L129.6,27z M91.3,0h2.8v27h-2.8V0L91.3,0z M63.5,27H54V0h9.5c7.1,0,15,4.5,15,13.5
	C78.5,22.5,70.6,27,63.5,27L63.5,27z M62.6,2.6h-5.6v21.9h5.6c8.7,0,12.8-5.4,12.8-11C75.3,8,71.3,2.6,62.6,2.6L62.6,2.6z M32.5,27
	h-2.8V15.4L19.2,0h3.6l8.3,12.7L39.3,0h3.6L32.5,15.4V27L32.5,27z M0,0h2.8v24.3h12.9V27H0V0L0,0z"/>
</svg>
