<?xml version="1.0" encoding="utf-8"?>
<!-- Generator: Adobe Illustrator 17.1.0, SVG Export Plug-In . SVG Version: 6.00 Build 0)  -->
<!DOCTYPE svg PUBLIC "-//W3C//DTD SVG 1.1//EN" "http://www.w3.org/Graphics/SVG/1.1/DTD/svg11.dtd">
<svg version="1.1" id="Calque_1" xmlns="http://www.w3.org/2000/svg" xmlns:xlink="http://www.w3.org/1999/xlink" x="0px" y="0px"
	 viewBox="0 0 78.1 41.1" enable-background="new 0 0 78.1 41.1" xml:space="preserve">
<g>
	<path fill="#2B2D3A" d="M0,34.8l4.6-6.6c2.8,2.9,7.1,5.4,12.6,5.4c4.7,0,6.9-2.1,6.9-4.4c0-6.9-22.9-2.1-22.9-17
		C1.3,5.5,7,0.1,16.4,0.1c6.3,0,11.6,1.9,15.5,5.5l-4.7,6.3c-3.2-3-7.5-4.3-11.6-4.3C12,7.6,10,9.1,10,11.5c0,6.3,22.8,2,22.8,16.9
		c0,7.3-5.2,12.8-15.9,12.8C9.2,41.1,3.8,38.6,0,34.8z"/>
	<path fill="#2B2D3A" d="M36.6,20.6C36.6,8.6,45.3,0,57.4,0c12,0,20.7,8.6,20.7,20.6c0,12-8.8,20.6-20.7,20.6
		C45.3,41.1,36.6,32.5,36.6,20.6z M69.4,20.6c0-7.4-4.7-13-12-13c-7.4,0-12.1,5.6-12.1,13c0,7.4,4.7,13,12.1,13
		C64.7,33.6,69.4,27.9,69.4,20.6z"/>
</g>
</svg>
